<?xml version="1.0" encoding="utf-8"?>
<!-- Generator: Adobe Illustrator 21.1.0, SVG Export Plug-In . SVG Version: 6.00 Build 0)  -->
<svg version="1.1" id="Layer_1" xmlns="http://www.w3.org/2000/svg" xmlns:xlink="http://www.w3.org/1999/xlink" x="0px" y="0px"
	 viewBox="0 0 1080.8 1181" style="enable-background:new 0 0 1080.8 1181;" xml:space="preserve">
<style type="text/css">
	.st0{fill:#83D3FB;}
	.st1{fill:#FFE9CA;}
	.st2{fill:#78D7FC;}
	.st3{fill:#FFFFFF;}
	.st4{fill:#F4F4F4;}
	.st5{fill:#FFE9CA;stroke:#000000;stroke-width:4;stroke-miterlimit:10;}
	.st6{fill:#A8EBB7;}
	.st7{fill:#FD7F6E;}
	.st8{fill:#EDE1AF;}
	.st9{fill:#FEF4C8;}
	.st10{fill:#9EC2F8;}
	.st11{fill:#83A8E1;}
</style>
<path class="st0" d="M959.9,867c5.1,11.3,9.5,22.7,12.7,34.6c4.5,17,15,53-2.7,65.9c-19.4,14-37.3-5-47.6-20.9
	c-7.1-11-12.3-23.2-19.2-34.3 M894.2,909.8c-35,16.4-64.9,24-86,27.9c-4.2,0.7-25.4,5-68.8,9.3c-11.1,1.1-21.1,0.6-34.6-0.1
	c-13.6-0.6-25.9-4.3-39.2-7.4c-10.3-2.4-21.6-4.7-30.2-10.7c-12-8.3-23.7-15.8-35.4-24.5c-46.7-34.5-79.5-77.1-109.5-126.4
	c-29.1-47.9-52.2-96.2-66.2-150.9c-15.6-60.9-26.4-126-27.6-188.9c116.7,44.9,89.6-192.1,4-159.1c9.7-39.1,19.8-79.9,45-112.3
	c24.5-31.3,56.6-59,92.6-76C576.5,72.6,621,66,663.2,68.6c20,1.2,41.2,2.5,60.2,9.3c12.3,4.4,16.7,3.7,7.9,14.2
	c-4,4.7-13.6,10.9-8.2,17.8c9-16.2,28.2-34.9,46.1-40.8c19.4-6.4,45.7-13.5,65-4.3c18.1,8.8,24.6,30.1,11.6,46.3
	c-7.2,9-18.7,14.1-28.7,19.3c-6.8,3.5-17.3,6.3-20,14c11.2-5.4,22.5-10.7,33.7-16c0,2,6.4,7,8.3,9c5.2,5.7,9.9,11.9,14.9,17.8
	c10.9,12.5,21.7,24.1,29.5,38.8c16.4,31,31.5,65.9,32.5,101.3c1,35.7-4.3,69.3-12.1,103.9c-4,18.1-6.1,36-4.7,54.4
	c1.3,17.9,7.9,32.9,13.2,49.7C900,499.2,892.6,484,881,480c2.2,13.4,22.2,23.3,32,31.3c13.8,11.2,27.5,22.3,41,33.8
	c20.7,17.8,47,48.3,45.8,77.8c-1.6,38.5-54.1,14.2-69.3,1c-11.9-10.4-24.7-20.3-35.6-31.7c-9.5-10-27.4-25.1-38.4-30.1
	c6.9,7.6,22.7,20.2,31.2,28.6c11.3,11,22.9,21.5,34.7,32c12.6,11.1,23.1,16.4,38.1,23.1c3.7,1.7,11.6,3.6,20.8,34.1
	c16.5,54.5,9.6,105.2,9.6,105.2c-5.4,32-15.3,62.1-28.6,76.4C943.4,881.7,917,893.6,894.2,909.8z M725.1,301.1
	c-6.8-8.7-12.1-19.5-20.5-26.7c-8.6-7.3-21.2-12.5-32.1-15.3c-21.3-5.6-50.7-10.5-71.3-2c-21.3,8.8-46.7,19.7-53.9,44
	c-7.3,25-10.9,53.2,2.5,76.9c26.5,47.2,86.5,60.7,134.1,41.6c21.4-8.6,39.2-26.5,47.6-48.1C741.5,345.7,725.3,326.2,725.1,301.1z
	 M486,436.7c-10.9,9.1-33.1,21-19,37.3c10.5,12.1,36.3,4.8,42.2,19.5c7.8,19.4-2.2,35.8,25,35c7.4-0.3,18.7,1.4,22.3-6.9
	c3.8-9-8-23.6-1.3-31.5c3.7-4.3,16.6-5.8,22.2-8.7c8.4-4.3,17.4-8.3,17.3-19.1c-0.2-19.7-19.1-23.6-29.6-34.9
	c-12.9-14-25.8-21-45.8-18.5C507,410.4,473.2,416.2,486,436.7z M813.1,95c2.3-8.5-21.2,0.1-24,1.2c-9.4,3.7-23.9,6.7-25.3,18.6
	C777.4,102.4,795.1,97.1,813.1,95z"/>
<path class="st1" d="M414.1,605.9c4.7,17,9.1,34,14.6,50.8c2,6,6.9,14.5,5.8,20.9c-1,5.8-8.3,12.7-12.3,16.6
	c-10.4,10.2-24.6,18.2-38.1,23.6c-11,4.5-30.8,9-42.3,5.4c-27.4-8.4-29-42.8-8.9-59.1C358.6,643.2,391.4,630.7,414.1,605.9z"/>
<path class="st1" d="M588.3,899.9c15.9,10.4,30.5,22.5,46.4,33.1c8.5,5.7,8.2,7.9,2.5,16c-5.1,7.3-12,16-19.9,20.4
	c-12.2,6.6-34,8.9-38.3-7C573.8,943.3,582.7,918.1,588.3,899.9z"/>
<path class="st2" d="M460.6,143.5c-8.5-15.3-41.3-51-12.9-63.1c22.9-9.8,46.3,5,60.6,22.3C490.9,115.4,477.1,129.8,460.6,143.5z"/>
<path d="M725,302.1c8.8,20.9,16,43.4,7.1,68.4c-7.6,21.5-25.1,40.2-45.9,49.2c-47.8,20.8-109.8,7.3-136.7-40.6
	c-13.1-23.1-10-50.6-3-75c7.2-25.3,23-35.6,45.1-45.4c21.2-9.4,56.5-7.9,78.7-2.5c11.6,2.8,24.9,11.5,34.1,19.4
	C712.9,282.7,720.8,292,725,302.1z M730.4,355.2c-1.6-48.4-28-91.4-79.8-94.8c-12.2-0.8-24.7-1.7-36.8-0.1
	c-11.2,1.4-22.5,5.4-32.5,11c-19.9,11.1-32.3,33.3-35.7,55.4c-7.4,50.2,30.7,86.7,76.3,97.4C667.6,434.9,724.9,404,730.4,355.2z"/>
<path d="M486,436.7c-12.4-19.7,18.9-25.6,30.9-27.5c21.1-3.3,34.5,3.3,48.2,18.1c10.4,11.2,29.4,15.2,29.6,34.9
	c0.1,10.3-7.3,13.6-15.4,18.1c-6.3,3.5-20.3,5.2-24.2,9.8c-5.9,6.7,3.3,22.1,1.5,29.8c-2.5,10.3-14,8.3-22.5,8.6
	c-27.4,0.9-17.1-15.6-25-35c-5.8-14.1-29.8-8.1-40.8-18C451.3,459.7,474.8,445.9,486,436.7z M551.2,485.4c3.1-0.5,30.8-10.2,34-13.1
	c8.7-7.9,3.9-21-3.5-28.5c-2.6-2.7-8.9-8.7-13.1-7.6c-3.6,1-7.3,7.7-10.8,10.1c-11.5,7.6-30.6,3.4-43.1,0.8
	c-13.5-2.8-21.4-9.8-33.4-1.3c-9.4,6.6-20.7,17-8.3,27.8c8.2,7.1,23.5,7.2,33.6,9.8C521.7,487.2,535.6,486.4,551.2,485.4z
	 M532.8,412.3c-11.9-1.2-31.2,1.1-39.4,10.9c-10.9,13.2,9.6,15.8,19.6,18.2c10,2.4,35.8,8.7,43-1.8
	C564.9,426.4,542.6,414.6,532.8,412.3z M552.2,516c-0.8-6.1,0.2-22.6-6.3-25.9c-4.2-2.1-14-0.6-14.8,1.1c-1.3,4.6,1.5,20,3.4,24.1
	c1.5,3.3,1.9,9,9,7.8C547.7,522.3,552,520.1,552.2,516z M513.7,490.7c-0.5,7.5,0.9,39.3,17.4,32.4c3-1.2,1.3-4.2-0.1-9.8
	c-1.2-4.5-3-21.4-4.8-22.3C522.9,489.3,513.9,488,513.7,490.7z"/>
<path d="M813.1,96c-18,2.2-35.6,7.5-49.4,19.8c1.4-11.9,15.9-14.8,25.3-18.6C791.9,96,815.3,87.5,813.1,96z"/>
<path d="M443.6,411.1c-0.8,13.1-17.6,14.4-26,8.3c-9.3-6.6-19.4-24.7-17.7-36.5c1.9-13,17.4-14.9,26.6-7.8
	C436.9,383.1,444.5,398.1,443.6,411.1z M417.9,378.2c-3.7,4.6,0.7,16.7,7.2,14.9C432,391.3,420.1,380.9,417.9,378.2z"/>
<path class="st1" d="M551.2,486.4c-14.6,1-28.1,2.2-42.4-1.4c-10.1-2.5-25.7-3.2-34.5-9.2c-13.5-9.3-4.4-20.9,5.1-27.8
	c13.5-9.8,19.8-3.2,35.2,0.1c12.5,2.7,29.3,6.3,41.5,0.1c4.7-2.4,7.5-8.8,11.3-10.8c4.2-2.1,10.1,3.5,12.8,6.1
	c6.9,6.4,14.2,19.8,7,28.4C583.9,475.8,554.3,486.2,551.2,486.4z"/>
<path d="M532.8,412.3c10.1,2.3,31.8,14,23.1,27.2c-6.9,10.6-33.2,4.2-43,1.8c-9.8-2.3-30.7-5-19.6-18.2
	C501.6,413.5,520.8,411.1,532.8,412.3z"/>
<path class="st3" d="M538,516.4c-0.9-7.6-8.7-15.4-6.1-21.3c1.8-4.2,9.9-6.3,14-4.2c6.7,3.7,5.5,19.5,6.3,25.9"/>
<path d="M617.6,352.3c8.3-4.4,16.2-3.4,24.4-0.1c6.6,2.7,12.9,8,17.5,13.3c8.9,10.4,18.1,30.7,3.3,39.6
	c-13.8,8.4-35.5-0.2-44.7-12.2c-4.1-5.2-7.9-12.9-8.9-19.5C608.7,369.2,609.3,356.8,617.6,352.3z M641.2,373.8
	c1.1-3.6-4.6-14-8.6-9.5C628.7,368.9,637.8,373.6,641.2,373.8z"/>
<path class="st4" d="M452.1,956.1c2.5,1.4,28.9,7.9,44.3,10.6c6.3,1.2,7,0.3,9.5,0.2c2.3-0.1,4.1-0.8,5.2-2.8
	c0.8-1.5,5.4-12.2,11.6-23.4c6.7-12,15-24.3,15.3-25.2c0.6-2,0.3-2.8-1.7-3.6c-1.5-0.6-3.1-1.1-4.7-1.7c-5.7-1.9-11.4-3.4-16.9-5.5
	c-8.3-3.1-16.3-6.5-24.6-9.7c-2.5-0.9-2.9-0.9-4.4,1.2c-1.5,1.9-2.9,3.9-4.4,5.8c-2.6,3.5-5.4,6.8-7.2,10.4c-3,5.8-5.2,12.1-8,18
	c-2.5,5.4-5.3,10.6-8.1,15.8C456.3,949.6,454.2,952.6,452.1,956.1z"/>
<path class="st3" d="M641.2,373.8c-3.2-0.2-12.5-4.9-8.6-9.5C636.7,359.8,642.4,370,641.2,373.8z"/>
<path class="st1" d="M962.2,865c3.5,8.6,10.4,31.6,11.9,37.3c5,18.1,16.3,56.3-2.8,69.9c-21,14.8-40.4-5.4-51.5-22.3
	c-8.9-13.5-11.1-19.3-20.8-36.5c-0.9-1.9,3.7-7.1,18.3-16.5C939.9,880.3,952.5,871.9,962.2,865z"/>
<path class="st5" d="M883.5,481.7c7.1,6.2,12.2,13,17.2,17.8c1.5,1.4,6.1,5.9,12.4,11.6c22.9,20.5,25.3,20.4,41,33.8
	c20.7,17.8,47,48.3,45.8,77.8c-1.6,38.5-54.1,14.2-69.3,1c-8.6-7.5-12.8-11.4-21.6-19.4c-7.6-6.8-11.4-10.1-13.9-12.3
	c-23.7-20.7-32.2-22-37.1-28.8C850.7,553.5,867.4,467.6,883.5,481.7z"/>
<path d="M835.4,126.7c17.1,19,35.7,37.1,49,59.2c13.8,22.9,24.1,48.3,31.2,74c7.2,26,6.5,54.3,4.3,80.9c-2.3,27.8-12,53.9-15.9,81.3
	c-3.6,24.7,0.4,52.6,11.2,75c5.4,11.2,8.6,16.9,18,24.8c11.5,9.6,23.7,18.7,34.7,28.8c15.2,14.1,30.8,37.3,34.8,57.6
	c4.2,22-5.6,40.5-29.4,40.2c29.7,50.4,28.8,126.5,10.3,180.7c-2.5,7.4-5.5,14.8-9.1,21.8c-2.6,5.2-7.7,10.7-8.3,16.5
	c-0.7,5.7,10.9,34.5,12.6,42c5.3,23.4,14.5,62.1-19.2,68.1c-28.5,5.1-46.6-34.4-56.7-54.7c-5.2-10.5-6.5-8-16.8-3.8
	c-15.1,6.1-31,11.5-46.6,16.3c-28.8,8.6-61,12.1-90.9,13.8c-14.6,0.9-29.5,2-44.1,1.5c-16.7-0.6-31.8-6.4-48.1-9.3
	c-12.5-2.3-14.3,10.3-21.5,18.9c-10.5,12.4-25.6,19.9-42.2,18.5c-34.4-2.8-13.3-57-9.3-77.1c1-8.2-13.5-17.4-16.9-20.6
	c-11.8-11.3-23.5-22.8-34.4-34.8c-21.5-23.9-35.5-52.1-52.9-79c-9.1-14.1-17.8-27.8-25.1-42.8c-3.1-6.4-5.9-12.9-8.5-19.5
	c-1.6-3.7-2.6-8.2-4.7-11.7c-3.2-5.2-1.1-6.4-7.4-4.2c-4.4,1.5-8.6,8-11.8,11c-4.5,4.3-9.7,7.9-14.9,11.1
	c-13.9,8.5-28.3,13-44.3,15.5c-24.3,3.9-55.4-11.5-47.6-41.1c8-30.6,47.7-45.1,71.1-61.6c10.7-7.6,28.1-16.7,27.7-32.1
	c-0.2-6.6-4-14.2-5.1-20.9c-1.2-8.5-2.2-17.1-3.6-25.5c-5.2-33.3-8.7-66.6-12.9-100.1c-1.7-13.2-16.3-22.5-24.1-33.8
	c-9.8-14.3-15.6-28.9-15.8-46.5c-0.2-33.3,18.2-70.4,48.3-85.6c-8.7,8.7,1.5-24.4,4.5-33.2c4.5-12.8,9-25.6,13.7-38.5
	c4.2-11.4,8.9-22.4,15.6-32.7c3.4-5.3,7.2-10.4,11.4-15.2c2.8-3.2,10.3-8,11.3-12.4c1.7-7.8-12.6-23.5-16.4-30
	c-5.7-9.9-10.5-22-4.1-32.9c5.3-8.9,14.3-8.7,23.5-10.2c16.4-2.7,25.2,2.8,38.7,12c4.3,2.9,8.5,8.9,12.7,11
	c6.1,3.2,8.7-0.6,14.7-4.1c11.2-6.6,23-11.4,35.3-15.4c24.7-8.3,49.4-9.5,75-12.3c25.2-2.8,53.4-0.7,78.1,5
	c8.1,1.9,21.9,11,29.5,9.1c3.6-0.9,8.4-6.2,12-8.3c6-3.5,12.2-5.7,18.9-7.6c22.3-6.5,55.9-14.2,73.6,5.8
	C865.4,89.1,857,114.3,835.4,126.7z M903.1,913.3c6.9,11.2,12,23.3,19.2,34.3c10.2,15.8,28.2,34.9,47.6,20.9
	c17.8-12.8,7.2-48.7,2.7-65.9c-3.2-11.9-7.5-23.5-12.7-34.6 M962.5,861.2c0.3-0.4,0.8-0.9,1.1-1.2c3.3-3.8,6.2-8.1,8.8-12.7
	c23.3-41.8,22.4-116.5,9.1-167.7c-3-11.5-8-27.8-19.2-33.5c-14.1-7.2-25.3-10.8-37.8-21.8c-11.8-10.4-23.5-20.9-34.8-31.9
	c-6.3-6.1-12.6-12.1-19.7-17.5c-5.1-4-11.2-6.8-13.6-13c12.8,2.8,27.8,18.8,36.9,28.3c11,11.5,23.4,21.3,35.4,31.9
	c15,13.3,69.5,40.5,71.1,0.5c1.1-28.3-23.7-58.7-43.7-76.1c-13.4-11.5-27.1-22.8-41-33.9c-10.2-8.2-27.2-22.7-34.1-32.9
	c11.6,4.1,18.9,19.2,31.5,23.4c-5-15.8-11.5-30.1-12.9-46.8c-1.6-18.5-0.1-36.6,3.8-54.7c7.9-35.7,13.8-69.9,12.8-106.7
	c-0.9-34.6-15.6-68.3-31.2-98.8c-7.8-15-18-26.9-29.1-39.5c-5.7-6.4-10.9-13.4-16.6-19.7c-2.1-2.4-8.3-6.5-8.3-9
	c-11.2,5.4-22.5,10.7-33.7,16c2.6-7.6,13.1-10.4,20-14c10-5.2,21.4-10.3,28.7-19.3c13-16.1,6.7-37.5-11.6-46.3
	c-19.4-9.3-45.7-2.2-65,4.3c-17.8,5.9-37.2,24.4-46.1,40.8c-11.7-15,31.9-20.5,2.9-31c-20-7.3-41.6-8.9-62.7-10.2
	c-42.2-2.6-86.7,4.1-124.9,22.1c-35.9,17-68.2,44.8-92.6,76c-25.3,32.4-35.4,73.2-45,112.3c85.5-33.2,112.7,203.9-4,159.1
	c1.1,56.1,10.6,113.1,22.9,167.7c11.8,52.8,29.3,106.5,58.7,152.3c31.1,48.5,59.2,94.4,104.7,130.9c19,15.2,41.8,35.9,64.4,44.3
	c22.1,8.1,47.6,13.8,71.3,13.3c53.1-1,115.5-12.8,158.9-29.7c6-2.3,11.5-4.7,16.6-7.3l29.8-19.3L962.5,861.2z M413.2,282
	c-34.7-2.9-56.7,53.1-56.8,80.2c-0.1,36.5,24.7,72.8,62.2,76.8c39.8,4.3,52.7-42.5,52.5-75.1c-0.1-17.5-5.7-35.9-15.8-50.4
	C447.8,302.8,429,277.6,413.2,282z M414.1,605.9c-22.1,24.2-53.7,37-79.4,56.8c-20.9,16.1-22,51.6,7.1,60.4
	c10.4,3.2,29.8-0.7,40-4.4c13.6-4.9,28.3-13.3,38.8-23.1c4.3-4,11.8-10.8,13.4-16.7c1.7-6.3-2.4-13.6-4.4-19.6
	C423.7,641.6,419,623.7,414.1,605.9z M588.3,899.9c-5.5,18-13.3,40.9-9.8,59.9c3.3,18.2,24.9,17,38.7,9.6
	c7.3-3.9,13.8-12.1,18.6-18.7c5.3-7.1,8.1-10.5,0.9-16.3C621.6,922.2,604.6,910.6,588.3,899.9z M460.6,143.5
	c16.5-13.7,30.3-28.1,47.7-40.8c-14.3-17.3-37.7-32-60.6-22.3C419.3,92.4,452.1,128.1,460.6,143.5z"/>
<g>
	<path class="st6" d="M542.5,913.1c-1.3,1.9-2.4,3.1-3.1,4.7c-2.3,4.9-14.3,25.2-16.8,28.8c-1.9,2.7-3.4,5.7-5.1,8.7
		c-1.5,2.9-2.9,5.9-4.2,8.8c-1.7,4-5,5.1-8.9,5c-2,0-14.2-1.9-24.1-4c-12.8-2.7-24.2-5.8-27-6.5c-1.2-0.3-4.8-1.3-6.1-1.7
		c-5-1.8-6.8-6.9-15-27c-2.9-7.2-4.6-14.9-6.8-22.3c-1.2-4.1-1.2-7.6,1.7-11.1c2.8-3.4,5.2-7.3,7.6-11c2.5-3.9,4.8-7.7,7.3-11.4
		c1.9-3,4.2-5.9,6.1-8.7c0.7-1.1,1.5-2.3,2.2-3.6c2.6-4.6,6-8.6,10.5-11.4c1.5-0.8,3.6-0.8,5.4-0.6c2,0,4,0.5,6.1,1.1
		c9.5,2.8,19.2,4.7,28.2,9c4.5,2.1,9.2,3.7,13.8,5.6c4.6,1.8,7.7,5.2,10.1,9.3c4.9,8.5,9.7,17.1,14.4,25.9
		C540.9,904.6,542.3,909.2,542.5,913.1z"/>
	<path d="M543,912.5c-1.4,1.9-2.4,3.2-3.2,4.8c-2.3,4.9-14.4,25.5-17,29.1c-2,2.7-3.5,5.8-5.2,8.8c-1.5,2.9-2.9,5.9-4.3,8.9
		c-1.7,4.1-5.1,5.2-9,5.1c-2.1,0-14.3-1.9-24.4-4c-13-2.7-24.5-5.9-27.3-6.6c-1.2-0.3-4.8-1.3-6.1-1.7c-5.1-1.9-6.9-7-15.1-27.3
		c-2.9-7.2-4.7-15-6.9-22.6c-1.2-4.1-1.2-7.6,1.7-11.2c2.9-3.5,5.3-7.4,7.7-11.1c2.6-3.9,4.8-7.8,7.4-11.6c2-3,4.2-5.9,6.2-8.8
		c0.8-1.2,1.5-2.3,2.3-3.6c2.6-4.6,6-8.7,10.6-11.5c1.5-0.8,3.7-0.8,5.4-0.6c2.1,0,4.1,0.5,6.1,1.1c9.6,2.8,19.4,4.8,28.5,9.1
		c4.5,2.1,9.3,3.7,14,5.7c4.7,1.9,7.8,5.3,10.2,9.4c5,8.6,9.8,17.3,14.6,26.2C541.4,903.9,542.8,908.5,543,912.5z M452,955.6
		c2.5,1.4,28.9,7.9,44.3,10.6c6.3,1.2,7,0.3,9.5,0.2c2.3-0.1,4.1-0.8,5.2-2.8c0.8-1.5,5.4-12.2,11.6-23.4c6.7-12,15-24.3,15.3-25.2
		c0.6-2,0.3-2.8-1.7-3.6c-1.5-0.6-3.1-1.1-4.7-1.7c-5.7-1.9-11.4-3.4-16.9-5.5c-8.3-3.1-16.3-6.5-24.6-9.7c-2.5-0.9-2.9-0.9-4.4,1.2
		c-1.5,1.9-2.9,3.9-4.4,5.8c-2.6,3.5-5.4,6.8-7.2,10.4c-3,5.8-5.2,12.1-8,18c-2.5,5.4-5.3,10.6-8.1,15.8
		C456.2,949.1,454.1,952.1,452,955.6z M427.6,909.1c0.4,1.3,2,7.8,5.7,16.7c4.6,11.4,11.7,25.6,14.1,28.3c0.3,0.3,0.7,0.5,1.2,0.9
		c2.4-1.3,3.1-3.5,4.2-5.2c2.7-4.6,5.9-9,7.6-14.2c0.2-0.6,0.8-1.2,1.1-1.7c2.3-4.6,4.9-9.1,6.7-13.8c2-5.1,3.9-10,7-14.4
		c2.7-3.8,5.7-7.2,8.7-10.7c2.1-2.6,2.3-2.7,0.3-5.3c-3.1-4-6.4-7.7-9.6-11.8c-1.7-2.2-3.6-4.5-4.8-7c-2.5-4.7-4.6-9.8-6.9-14.5
		c-0.7-1.5-1.8-2.8-2.8-4.5c-3.6,2.9-6.6,5.4-8.1,9.4c-0.6,1.5-1.7,2.8-2.7,4c-1.1,1.4-2.2,2.6-3.3,4.2c-1.5,2.3-2.6,4.8-4.1,7.1
		c-4.7,7.1-9.5,14.2-14.5,21.1c-0.8,1.3-1.5,3.3-1.3,5.8C425.9,905.6,426.8,906.6,427.6,909.1z M507.9,864
		c-12.2-4.3-21.5-7.6-26.8-9.8c-3.9-1.5-8-2.2-11.9-3.5c-2.2-0.6-4.2-0.8-6.6-0.1c0,0.6,0,1.2,0.1,1.6c2.7,5.6,5.2,11.4,8.2,16.9
		c1.6,3,3.4,5.6,5.4,8.2c3,4,6.4,7.7,9.4,11.8c1.3,1.6,2.6,2.8,4.6,3.6c4.2,1.5,8.6,2.8,12.7,4.6c11.6,5.1,23.7,8.7,35.5,12.9
		c0.3,0.2,0.6,0,1.6,0c-0.5-2.1-0.7-3.8-1.4-5.3c-2.5-5.3-5.2-10.7-8-15.8c-3.7-7.1-4.4-8.1-6.2-10.8c-2.1-3.1-4.3-5.4-5.6-7.1
		C515.9,867.2,511.5,866.4,507.9,864z"/>
	<path d="M489.8,920.6c-12-0.2-7.2-13.6,2.8-13.9c3.4-0.1,9.3,1.7,9.3,6.3C501.7,918.4,493.4,920.7,489.8,920.6z"/>
	<path d="M502.8,949c4.8,1.1,7.4,3.8,3.5,9c-2.3,3-6.4,4.3-9.7,3.3c-4.5-1.3-6.1-4.7-2.8-8.7C496.4,949.6,499.3,949.1,502.8,949z"/>
	<path d="M495.1,941.5c-2.8,0.4-7.4-2.3-6.9-6.6c0.5-3.8,7.8-6.6,10.4-7.3c4.1-1.1,7.1,3.8,5,8.7C502,940.1,498.2,941,495.1,941.5z"
		/>
	<path d="M459.2,903.7c-1.7-3.1-0.9-6.3,1.9-9c1.3-1.4,7.6-5,9.7-3.6c2.5,1.5,0.9,7.8,0,9.7C467.8,906.4,462,908.9,459.2,903.7z"/>
	<path d="M441.1,931.7c0.4-3.8,3.2-7,6.5-9.1c4.2-2.8,7.6-0.4,6.9,4.7C453.5,934,440.1,942.2,441.1,931.7z"/>
	<path d="M459.6,870.9c0.5,6.2-12.9,16.4-12.1,6.4C448,870.3,458.8,859.2,459.6,870.9z"/>
	<path d="M446.6,912.3c0.2,4.1-2.9,7-6.9,8.7c-3.8,1.7-7.1,1-6.8-3.5c0.2-3.4,3.6-6.2,6-8.1C443.5,905.6,446.4,906.6,446.6,912.3z"
		/>
	<path d="M463.4,878.5c4.3,2.9-4.9,18.2-9.8,12.8C448.9,886.1,459,875.8,463.4,878.5z"/>
	<path d="M496,889.1c-3.5-0.7-6.3-2-8.7-4.1c-1.9-1.6-2.4-4.3-1.5-5.9c1.1-1.7,3.7-2.7,6.2-1.6c1.9,0.9,3.8,2.1,5.5,3.3
		c0.7,0.5,1.1,1.3,1.7,1.9c1,1.5,1.4,3.3,0.3,4.5C498.8,888.3,497.2,888.5,496,889.1z"/>
	<path d="M441,900c0.2,3.7-2.6,6.2-6.2,7.8c-3.4,1.5-6.3,0.9-6.1-3.1c0.2-3.1,3.2-5.5,5.4-7.2C438.1,894.1,440.8,894.9,441,900z"/>
	<path d="M514.2,880.7c-3.1-0.5-5.5-1.9-7.7-3.7c-1.7-1.4-2.1-3.7-1.2-5.2c0.9-1.6,3.3-2.3,5.3-1.4c1.7,0.8,3.3,1.8,4.9,2.9
		c0.6,0.5,1,1.2,1.4,1.8c0.9,1.2,1.3,2.8,0.4,4C516.7,879.8,515.2,880.1,514.2,880.7z"/>
	<g>
		<path class="st7" d="M396.5,875.9c-1.2,9.4-2.1,18.7-2.9,28.1c-0.6,9.1-5,12.7-13.9,14.8c-4.2,0.9-22.8,4.8-28.1,5.5
			c-4.9,0.6-10,1.2-15.1,1.6c-5.2,0.5-6.8-2-7.8-7c-1.8-9.7-3.8-19.5-5.7-29.1c-2-9.7,1.4-18.2,3.7-27.7c2.2-8.8,3.5-17.6,13.4-19.9
			c4.5-1.1,40.7-7.9,42.6-7.7c3.9,0.2,4.5,5.9,5.5,8.9C392,854.1,394.4,864.9,396.5,875.9z"/>
		<path d="M396.5,876c-1.2,9.5-2.1,18.9-2.9,28.4c-0.6,9.2-5.1,12.8-14.1,15c-4.3,0.9-23.1,4.8-28.4,5.6c-5,0.6-10.1,1.3-15.3,1.6
			c-5.3,0.5-6.8-2-7.9-7c-1.9-9.9-3.9-19.7-5.7-29.4c-2-9.9,1.4-18.4,3.8-28.1c2.2-8.9,3.6-17.8,13.6-20.1c4.6-1.1,41.2-8,43.1-7.8
			c4,0.2,4.6,6,5.5,9C391.9,853.9,394.3,864.8,396.5,876z M389.6,853.9c-1.4-5.2-2.5-9-5.4-13.6c-1.7,4.1-2.5,7.7-3.3,13
			c-0.8,4.8-2.8,13.3-2.1,18.1c0.4,3.1,4.4,13.9,7.2,22.3c2.6,8.1,4.1,13.7,4.3,14.2c1.4,2.7,1.4-1.9,1.5-2.6
			c0.7-5.7,2.4-17.4,2.8-23.2c0-1.3,0.7-8-0.6-12.5 M376.3,873.2c-7.5,0.3-38.1,9.2-46.5,10.2c-5.7,0.8-6.3-0.1-5.1,5.2
			c0.8,3.8,5.1,33.1,7.2,34.9c1.3,1.1,10.1,0.5,23-1.4c7.9-1.3,21-4,24.1-4.8c3.2-0.8,8.5-2.3,8.8-6.1c0.2-3.7-2-8.7-3-12.2
			C382.2,890.3,379.2,881.8,376.3,873.2z M382,837.3c-7.3,0.6-14.7,1.3-21.9,2.8c-7.2,1.5-14.8,2.2-21.8,4.7
			c-6.2,2.2-7.5,8.9-9.2,15.1c-1.9,7.1-4.2,14.7-5.1,22c15.6-1.6,30.3-6.1,45.5-9.8c1.5-0.4,3.7-0.5,5-1.2c1.9-1,1.3-0.6,1.8-3
			c0.8-3.1,1-6.4,1.5-9.5C379.1,851,379.8,844.4,382,837.3z"/>
		<path d="M388.2,857.4c0.3,7.6-4.1,5-5.4,1.2c-0.8-2.2,0.3-5.4,1.4-5.7C386.8,852.3,388.2,856.3,388.2,857.4z"/>
		<path d="M384.9,884.8c-0.2-3.1,1.8-4.1,3.4-3.6c1.7,0.5,2.1,4.7,1.9,5.8c-0.2,1.3-0.7,4.5-2.4,3.9
			C386.1,890.3,385,886.7,384.9,884.8z"/>
		<path d="M333.9,911.2c0.3-7.2,12-4.3,12,1.9C346.1,920,333,919.1,333.9,911.2z"/>
		<path d="M349.1,864.9c-0.3,0-1.2,0-1.8-0.3c-1.6-0.6-1.9-2.5-0.5-3.7c1.9-1.7,5.6-2.2,7.9-1c1.3,0.8,1.4,2.2,0.4,3.2
			C353.3,864.6,351.4,865,349.1,864.9z"/>
		<path d="M384.3,868.8c1.4-4.8,4-1.5,4.6,2c0.5,2.6-0.6,5.6-1.3,5.7C385.3,876.8,383.3,872.6,384.3,868.8z"/>
		<path d="M334.3,869c-0.3,0-1.2,0-1.8-0.3c-1.6-0.6-1.9-2.5-0.5-3.7c1.9-1.7,5.6-2.2,7.9-1c1.3,0.8,1.4,2.2,0.4,3.2
			C338.6,868.7,336.7,869.1,334.3,869z"/>
		<path d="M337.5,855.9c-0.3,0-1.2,0-1.8-0.3c-1.6-0.6-1.9-2.5-0.5-3.7c1.9-1.7,5.6-2.2,7.9-1c1.3,0.8,1.4,2.2,0.4,3.2
			C341.8,855.5,339.9,855.9,337.5,855.9z"/>
		<path d="M352.2,853.3c-0.3,0-1.2,0-1.8-0.3c-1.6-0.6-1.9-2.5-0.5-3.7c1.9-1.7,5.6-2.2,7.9-1c1.3,0.8,1.4,2.2,0.4,3.2
			C356.5,852.9,354.6,853.3,352.2,853.3z"/>
		<path d="M366.9,850.6c-0.3,0-1.2,0-1.8-0.3c-1.6-0.6-1.9-2.5-0.5-3.7c1.9-1.7,5.6-2.2,7.9-1c1.3,0.8,1.4,2.2,0.4,3.2
			C371.2,850.3,369.3,850.7,366.9,850.6z"/>
		<path d="M365.2,862.3c-0.3,0-1.2,0-1.8-0.3c-1.6-0.6-1.9-2.5-0.5-3.7c1.9-1.7,5.6-2.2,7.9-1c1.3,0.8,1.4,2.2,0.4,3.2
			C369.5,862,367.6,862.4,365.2,862.3z"/>
		<path d="M329.9,890.6c0.3-7.2,12-4.3,12,1.9C342.1,899.4,329,898.5,329.9,890.6z"/>
		<path d="M348.9,896.9c0.3-7.2,12-4.3,12,1.9C361,905.6,348,904.8,348.9,896.9z"/>
		<path d="M360.8,883.9c0.3-7.2,12-4.3,12,1.9C373,892.7,359.9,891.8,360.8,883.9z"/>
		<path d="M366.3,903.1c0.3-7.2,12-4.3,12,1.9C378.5,911.8,365.4,911,366.3,903.1z"/>
	</g>
	<g>
		<path class="st8" d="M361,797.8c4.5,3.6,26.4,21.3,29,23c2.3,1.5,4.8,1.7,7.2,0.1c3.3-2.3,6.7-4.7,9.7-7.3
			c5.5-4.9,10.7-10,16.1-15.1c2.4-2.3,4.9-4.6,7.8-7.2c-1.2-0.9-1.7-1.5-2.5-2c-1.4-1.1-3.2-2-4.6-3.2c-7.2-6-14.6-12-21.8-18.2
			c-3.3-2.9-6.6-5.8-9.9-8.5c-2.3-2-2.5-1.8-4.8-0.2c-0.6,0.4-1,0.9-1.5,1.3c-4.9,3.9-9.8,7.7-14.6,11.7c-6,4.9-12.1,9.9-18,14.9
			c-1.6,1.4-1.4,3,0.4,4.4"/>
		<path d="M439.3,770.5c-0.7,3.4-1.1,6-1.8,8.6c-0.8,3.6-1.6,7.3-2.4,10.9c-0.3,1.5-0.9,2.2-2.4,3c-2.5,1.4-4.8,3.4-7,5.4
			c-6.4,5.9-12.7,12.1-19.4,17.9c-3.1,2.7-6.7,4.8-10.3,7.3c-1.9,1.4-4.1,1.4-6.2,0c-1.9-1.4-12.6-8.6-22.1-16.4
			c-7.4-5.9-14.1-12.7-16.1-13.7c-1.7-0.8-2.8-4.5-2.1-6.8c1.9-5.4,4-10.6,6.2-16c1.7-4.2,4-8.4,5.2-12.8c1.3-4.1,4.1-6.5,7.2-8.9
			c7.1-5.4,15.1-9.5,23.3-13.5c3.4-1.7,6.2-2.1,9.4-0.3c1.2,0.6,2.5,1.1,3.5,1.8c7.2,4.8,14.5,9.5,20,16.4c4.2,4.9,8.7,9.6,13,14.5
			C438.4,768.8,439,769.9,439.3,770.5z M360.8,797.8c4.5,3.6,26.4,21.3,29,23c2.3,1.5,4.8,1.7,7.2,0.1c3.3-2.3,6.7-4.7,9.7-7.3
			c5.5-4.9,10.7-10,16.1-15.1c2.4-2.3,4.9-4.6,7.8-7.2c-1.2-0.9-1.7-1.5-2.5-2c-1.4-1.1-3.2-2-4.6-3.2c-7.2-6-14.6-12-21.8-18.2
			c-3.3-2.9-6.6-5.8-9.9-8.6c-2.3-2-2.5-1.8-4.8-0.2c-0.6,0.4-1,0.9-1.5,1.3c-4.9,3.9-9.8,7.7-14.6,11.7c-6,4.9-12.1,9.9-18,14.9
			c-1.6,1.4-1.4,3,0.4,4.4 M431.9,790.1c0.5-1,0.8-1.5,0.9-1.7c1.1-5.3,2.4-10.5,3.5-15.8c0.3-1.6-0.2-2.8-1.2-3.8
			c-2.9-3.3-5.6-6.7-8.6-9.8c-3.6-3.9-7.3-7.6-11.2-11.1c-2.9-2.5-6.4-4.5-9.4-7.1c-2.2-1.8-4.8-2.7-7.3-3.7
			c-1.5-0.6-2.6-0.2-3.2,1.3c-2.1,4.6-4.1,9.4-4.2,14.7c-0.1,2.6,0.9,4.3,2.8,5.9c4.9,4.1,9.8,8.1,14.7,12.2
			c4.5,3.8,8.9,7.4,13.4,11.1C425.1,784.7,428.3,787.2,431.9,790.1z M392.3,738.9c-5.6,0.9-20.6,9.6-22.4,12.7
			c0.3,0.2,0.7,0.3,1,0.6c1.9,1.1,2,1.7,0.7,3.2c-1.2,1.4-2.4,2.4-4.5,2.8c-0.7-0.6-1.4-1.2-2.2-1.8c-4.7,7.7-11,22.8-11.2,27
			c1-0.9,1.9-1.4,2.7-2.1c4.8-3.9,9.4-7.9,14.2-11.7c5.2-4.3,10.3-8.4,15.6-12.6c1.3-1.1,2.1-2.4,2.3-4.2c0.5-3.7,1.2-7.2,2.8-10.5
			C391.8,741.4,391.8,740.3,392.3,738.9z"/>
		<path class="st9" d="M431.9,790.1c-3.6-2.9-6.8-5.4-9.9-8.1c-4.5-3.6-8.9-7.4-13.4-11.1c-4.9-4.1-9.8-8.1-14.7-12.2
			c-1.9-1.5-3-3.3-2.8-5.9c0.3-5.3,2.1-10.1,4.2-14.7c0.6-1.5,1.8-1.7,3.2-1.3c2.6,0.9,5.1,1.9,7.3,3.7c3,2.6,6.5,4.4,9.4,7.1
			c3.9,3.4,7.6,7.3,11.2,11.1c3,3.1,5.7,6.6,8.6,9.8c1,1.2,1.7,2.2,1.2,3.8c-1.1,5.3-2.3,10.5-3.5,15.8
			C432.6,788.6,432.5,789.1,431.9,790.1z M409.6,758c-0.2,1.5-0.6,3.1-0.4,4.4c0.5,2.2,2.1,3.9,4.2,4.9c2.6,1.4,5.9-0.3,5.5-2.8
			c-0.2-2.2-1.1-4.3-3.3-5.3C414,758.1,412.1,757.8,409.6,758z"/>
		<path class="st9" d="M392.3,738.9c-0.3,1.5-0.5,2.5-0.9,3.5c-1.7,3.3-2.3,6.8-2.8,10.5c-0.2,1.8-0.9,3.1-2.3,4.2
			c-5.2,4.1-10.4,8.4-15.6,12.6c-4.8,3.9-9.5,7.9-14.2,11.7c-0.7,0.7-1.6,1.3-2.7,2.1c0.2-4.2,6.5-19.4,11.2-27
			c0.7,0.6,1.4,1.2,2.2,1.8c2.1-0.3,3.3-1.4,4.5-2.8c1.4-1.6,1.2-2.2-0.7-3.2c-0.3-0.2-0.7-0.5-1-0.6
			C371.7,748.4,386.6,739.8,392.3,738.9z M363.6,772.2c1.6,0,4.8-4,4.3-5c-0.1-0.4-0.6-0.9-1-1.2c-1.6-1.2-2-1.2-3.8,0.5
			c-1.9,1.9-2.3,3-1.1,4.4C362.5,771.4,363.2,771.9,363.6,772.2z M384.4,747.1c-0.1-1.8-2.4-2.8-3.9-1.8c-1.2,0.7-2.1,1.9-3,3
			c-0.7,0.9-0.6,1.7,0.1,2.6c0.7,0.9,1.7,1.1,2.6,0.3c1.2-0.9,2.4-1.9,3.4-3C384.1,748,384.2,747.4,384.4,747.1z M378.2,761
			c1.9-0.1,2.8-1.8,3.9-3.3c0.6-0.9,0.8-2-0.2-2.6c-0.7-0.5-2-0.8-2.6-0.3c-1.2,0.9-2.4,2-3,3.3C375.3,759.4,376.3,760.8,378.2,761z
			"/>
		<path d="M387.6,805.8c0-2.5,2.6-4.8,5.2-4.7c2.9,0.1,6.1,3.1,5.9,5.5c-0.2,2.3-3.9,5.6-6.6,5.7
			C389.5,812.2,387.5,809.4,387.6,805.8z"/>
		<path d="M393.2,774.4c-0.1,2.8-2.6,5.2-5.4,5c-2.6-0.1-5.6-3.6-5.6-6.9c0-2.1,2.6-4.6,4.9-4.4
			C390.5,768.3,393.6,770.3,393.2,774.4z"/>
		<path d="M409.6,758c1.8-1.7,4.4,0.1,6.1,1c2.2,1.2,3,3.1,3.3,5.3c0.2,2.5-2.9,4.2-5.5,2.8c-2-1.1-3.6-2.7-4.2-4.9
			C409,761.1,408.6,759,409.6,758z"/>
		<path d="M363.6,772.2c-0.4-0.2-1.2-0.6-1.7-1.4c-1.1-1.3-0.8-2.5,1.1-4.4c1.8-1.7,2.1-1.9,3.8-0.5c0.4,0.3,0.9,0.7,1,1.2
			C368.3,768.2,365.1,772.6,363.6,772.2z"/>
		<path d="M384.4,747.1c-0.2,0.3-0.3,0.9-0.6,1.2c-1,1-2.2,2-3.4,3c-0.9,0.7-1.9,0.4-2.6-0.3c-0.7-0.9-0.8-1.8-0.1-2.6
			c0.9-1,1.8-2.2,3-3C381.9,744.3,384.3,745.5,384.4,747.1z"/>
		<path d="M378.2,761c-1.9-0.2-2.9-1.7-2.1-3.1c0.8-1.3,1.8-2.5,3-3.3c0.6-0.4,1.9,0,2.6,0.3c1,0.6,0.8,1.8,0.2,2.6
			C381.1,759.2,380.1,760.9,378.2,761z"/>
	</g>
	<g>
		<path class="st10" d="M497.3,974.8c2,3.7,3.7,7.4,5.6,11.2c4.1,7.8,8.2,15.7,12.1,23.7c2.4,4.9,4.5,10.1,6.7,14.9
			c1.1,2.4,2.4,4.7,3.5,7.1c1.4,3.1,3,6.1,4.2,9.2c1.1,2.5,0.5,4.4-1.9,5.5c-4.4,2.1-7.3,6.6-11,9.6c-6.3,5.2-5.5,5-16.8,14.6
			c-15.8,13.5-13.1,10.1-20.3,16.6c-4.2,3.9-7,6.6-12.2,9.6c-3.3,1.8-5.9,2.8-11.2,4.8c-3.5,1.2-30.2,9.4-42.2,12.3
			c-18,4.3-22.8,3.8-26,4.2c-3.2,0.4-7.6-0.7-10.2-3.1c-0.9-0.9-7.3-7.9-9.3-11.3c-1.6-2.7-49.9-83.8-51.9-87
			c-2.3-3.9-2.1-6.9,0.8-10.2c2.2-2.6,65.4-63.2,73-70.2c2.4-2.3,5.4-4.1,8.2-6c2.4-1.7,5.2-1.5,7.9-1.3c3.1,0.2,6.1,0.4,9.2,0.6
			c0-0.1,0-0.3,0-0.3c9.4,0.8,18.6,1.5,27.9,2.5c4.8,0.5,9.7,0.9,14.3,2c6,1.3,11.5,3.7,16.6,7.1c2,1.4,4.6,2.1,6.1,4.4
			 M500.4,985.3c-1.7-3.4-3.2-6.8-4.8-10.1 M527.5,1041.2c-0.8-2.2-1.5-4.6-2.8-6.6 M399.3,935.2c-0.7-0.7-1.4-1.6-2-2.2
			c-0.3-0.3,4.4-0.5,4.7-0.2"/>
		<path class="st11" d="M513.9,1056.4c3.6-2.9,5.2-5.3,8.1-8.2c0.4-0.4,0.5-1,0.8-1.9c-1.5-0.2-2.8-0.3-4-0.2
			c-6.9,0.2-45.6,2-49.3,1.2c-2.2-0.5-7.1,2.9-8.7,4.5c-5.5,5.5-71.9,56.7-75.5,59c-1.3,0.9-3.1,1.8-2.1,3.3
			c0.8,1.5,15.8,0.3,20.8-0.9c4.6-1.1,58.5-15.5,62.9-18.4c2.1-1.4,6.5-4.7,15.3-11.7c8.5-6.9,14.3-11.7,25.9-21.8
			C517.5,1053.6,512.9,1057.1,513.9,1056.4z"/>
		<path d="M515,1009.8c2.4,4.9,4.5,10.1,6.7,14.9c1.1,2.4,2.4,4.7,3.5,7.1c1.4,3.1,3,6.1,4.2,9.2c1.1,2.5,0.5,4.4-1.9,5.5
			c-4.4,2.1-7.3,6.6-11,9.6c-6.3,5.2-5.5,5-16.8,14.6c-15.8,13.5-13.1,10.1-20.3,16.6c-4.2,3.9-7,6.6-12.2,9.6
			c-3.3,1.8-5.9,2.8-11.2,4.8c-3.5,1.2-30.2,9.4-42.2,12.3c-18,4.3-22.8,3.8-26,4.2s-7.6-0.7-10.2-3.1c-0.9-0.9-7.3-7.9-9.3-11.3
			c-1.6-2.7-49.9-83.8-51.9-87c-2.3-3.9-2.1-6.9,0.8-10.2c2.2-2.6,65.4-63.2,73-70.2c2.4-2.3,5.4-4.1,8.2-6c2.4-1.7,5.2-1.5,7.9-1.3
			c3.1,0.2,6.1,0.4,9.2,0.6c0-0.1,0-0.3,0-0.3c9.4,0.8,18.6,1.5,27.9,2.5c4.8,0.5,9.7,0.9,14.3,2c6,1.3,11.5,3.7,16.6,7.1
			c2,1.4,4.6,2.1,6.1,4.4 M512.9,1056.6c3.6-2.9,5.2-5.3,8.1-8.2c0.4-0.4,0.5-1,0.8-1.9c-1.5-0.2-2.8-0.3-4-0.2
			c-6.9,0.2-45.6,2-49.3,1.2c-2.2-0.5-7.1,2.9-8.7,4.5c-5.5,5.5-71.9,56.7-75.5,59c-1.3,0.9-3.1,1.8-2.1,3.3
			c0.8,1.5,15.8,0.3,20.8-0.9c4.6-1.1,58.5-15.5,62.9-18.4c2.1-1.4,6.5-4.7,15.3-11.7c8.5-6.9,14.3-11.7,25.9-21.8
			C516.4,1053.8,511.8,1057.3,512.9,1056.6z M481,948.3c-1-1.8-2.6-3.4-4.3-4.5c-3.5-2.1-7.1-4-10.9-5.5c-6.8-3.1-14.1-4.2-21.4-4.7
			c-4.1-0.2-8.3-0.8-12.4-1c-8.5-0.6-17.1-1.1-25.6-1.7c-0.7,0-4,0.1-8.9,3.9c-12.5,10-35.2,32-48.2,44.3
			c-12.2,11.6-29.3,26.7-31.4,30.4c-0.8,1.2-1.2,2.5-0.5,3.7c1.3,2.5,2.4,5.2,4,7.6c2.7,4,48.5,82.1,52.9,88.1
			c1.9,2.4,3.3,2.4,6.1,1.4c1.9-0.7,75.1-57.4,82.6-64.3c2.2-2,2.4-1.9,1.7-3.5c-2-4.1-5.2-9.9-7.3-14.1c-1.5-3.1-3.7-5.9-5.5-9
			c-2.8-4.6-5.7-9.1-8.4-13.8c-2.5-4.6-4.8-9.3-7.3-14.1c-2-3.7-4.1-7.4-6.2-11.3c-2.5-4.4-5-8.7-7.5-13.2c-1.3-2.2-2.4-4.6-3.5-7
			c-1-1.8-2-3.7-3-5.5c-3.3-5.8-11.4-14-16.6-19.8c-0.7-0.7-1.4-1.6-2-2.2c-0.3-0.3,4.4-0.5,4.7-0.2c6,7.7,15.6,19.1,20.1,27.7
			c1.8,3.4,3.4,6.8,5.4,10.2c3.4,6.1,6.9,11.9,10.3,17.9c3.7,6.7,7.2,13.5,11,20.1c2,3.6,4.5,7,6.7,10.5c2.4,4,4.5,8,6.8,12
			c2.4,4.3,3.8,9.3,7.1,12.9c0.6,0.6,0.4,1.5,8.5,1.3c7.8-0.1,40.2-1.4,47.2-1.3c2.5,0,3.2-0.8,2.6-3.2c-0.8-2.2-1.5-4.6-2.8-6.6"/>
		<path class="st3" d="M396.2,984.3c1.9-0.5,4.1-0.7,5.9-1.6c3.7-2.3,4.8-6.2,4.2-10.3c-0.5-3.4-1.6-6.9-3.2-9.9
			c-1.7-3.4-4.6-5.5-8.7-5.4c-2.3,0-4.1,1.2-6.1,2.2c-3.3,1.7-4.2,4.8-4.4,7.8c-0.2,3.7,0.6,7.2,2.3,10.6
			C389,983.5,390.2,984,396.2,984.3z M423.4,1038c0.4,2.2,0.6,4.6,1.2,6.8c1.1,4.6,3.9,7.7,8.8,7.9c2.9,0.2,6.4,0.4,8.4-2.6
			c2.7-4.5,4.1-9.3,2.8-14.6c-1.4-5.4-6.4-8.9-11.4-8.3C427.6,1028,423.8,1032.1,423.4,1038z M343.8,1004.3
			c-4.2-0.2-9.6,3.2-9.4,9.2c0.1,2.1-0.1,4.1,1.3,5.9c-1.2,2.8,0.8,5,1.5,7.5c1.2,4.9,6,5.7,10,3.6c5.2-2.8,9.2-11.4,6.2-19.1
			C351.8,1007.1,348.5,1004.6,343.8,1004.3z M484.6,1026c-0.3-1.8-0.2-3.7-0.9-5.1c-1.5-3.4-3.2-7-5.5-10.1c-2-2.7-5-4.5-8.6-3.7
			c-4.6,1.1-8.3,3.6-6.8,9.1c0.4,1.3,0.8,2.8,1.1,4.1c1,6.2,4.6,10.1,10.6,12.2C479.9,1034.7,484.5,1031.9,484.6,1026z
			 M391.5,1081.9c-0.7-1.9-0.9-4.3-2.2-5.6c-1.9-2.1-4.3-3.6-6.8-5c-2.2-1.2-4.7-1.1-6.8,0.7c-5.4,5-7.6,11.3-3.9,18.2
			c1.6,3,6.2,5.1,9.3,4.3C386,1093.5,391.1,1087,391.5,1081.9z M479.5,966.9c0.6-1.6,1.2-3.5,0.8-5.7c-1.2-7.9-6.1-12.6-13-15.4
			c-2-0.9-3.9-0.5-5.6,0.8c-1.6,1.3-2.1,3.2-1.7,5.4c0.8,4.3,2.6,8.1,5.2,11.7c0.9,1,2,1.9,3.3,2.6
			C471.7,968,475.2,969.1,479.5,966.9z"/>
		<path d="M396.2,984.3c-6-0.3-7.2-0.7-10.1-6.8c-1.7-3.3-2.5-6.9-2.3-10.6c0.2-3.1,1.1-6.1,4.4-7.8c1.9-1,3.7-2.3,6.1-2.2
			c4.1-0.1,7,2.2,8.7,5.4c1.5,3.1,2.7,6.5,3.2,9.9c0.7,4.1-0.3,8.1-4.2,10.3C400.3,983.6,398.1,983.7,396.2,984.3z"/>
		<path d="M423.4,1038c0.4-5.7,4.2-10,9.7-10.8c5.1-0.6,10.1,2.8,11.4,8.3c1.4,5.3-0.1,10.3-2.8,14.6c-1.8,3-5.3,2.8-8.4,2.6
			c-5-0.2-7.7-3.4-8.8-7.9C424.1,1042.5,423.8,1040.2,423.4,1038z"/>
		<path d="M343.8,1004.3c4.7,0.1,8,2.7,9.5,7.1c2.9,7.7-1.2,16.1-6.2,19.1c-3.9,2.1-8.7,1.3-10-3.6c-0.7-2.5-2.7-4.7-1.5-7.5
			c-1.4-1.8-1.2-3.8-1.3-5.9C334.2,1007.5,339.5,1004.1,343.8,1004.3z"/>
		<path d="M484.6,1026c-0.1,5.9-4.7,8.7-10.1,6.7c-6-2.2-9.4-6-10.6-12.2c-0.3-1.5-0.7-2.8-1.1-4.1c-1.5-5.5,2.2-8.2,6.8-9.1
			c3.7-0.8,6.6,0.9,8.6,3.7c2.3,3.1,3.8,6.5,5.5,10.1C484.4,1022.4,484.3,1024.3,484.6,1026z"/>
		<path d="M391.5,1081.9c-0.5,5.1-5.5,11.6-10.4,12.8c-3.1,0.7-7.6-1.3-9.3-4.3c-3.8-7-1.6-13.2,3.9-18.2c2.1-1.9,4.6-2,6.8-0.7
			c2.5,1.4,4.9,2.9,6.8,5C390.5,1077.6,390.8,1080,391.5,1081.9z"/>
		<path d="M479.5,966.9c-4.3,2.3-7.8,1.2-11-0.8c-1.2-0.8-2.5-1.5-3.3-2.6c-2.6-3.4-4.4-7.4-5.2-11.7c-0.4-2.2,0.1-4.1,1.7-5.4
			s3.4-1.5,5.6-0.8c7.1,2.9,11.9,7.6,13,15.4C480.7,963.4,480.1,965.1,479.5,966.9z"/>
		<path d="M470.4,1054.9c1.5,0,2.3,0.6,2.9,2c1.5,3.3,0.9,5.6-2.3,7.4c-1.3,0.7-2.7,1.6-4,2.3c-3.4,2-6.9,2.2-10.7,1
			c-2.3-0.8-2.9-2.4-1.7-4.6c1.2-2.3,2.9-4,5.5-4.9c1.9-0.5,3.5-1.5,5.5-2.2C467.2,1055.4,468.8,1055.3,470.4,1054.9z"/>
		<path d="M430.2,1092.5c-0.8,2.9-2.6,4.6-4.4,6.1c-2.5,2-5.5,3.6-8.2,5.4c-1.6,1.1-3.2,1-5,0c-2.2-1.1-2.6-2.7-0.8-4.3
			c2.4-2,5.1-3.9,7.6-5.6c1-0.7,2.4-1,3.6-1.7C425.3,1091.2,427.6,1091.7,430.2,1092.5z"/>
		<path d="M494.1,1057.4c0,2.3-1.7,4.2-3.3,5.4c-2.8,2.1-5.8,4.1-9.8,4.2c-2.2,0-3.4-0.7-3.6-2.9c-0.3-1.6,0.1-3.1,1.3-4.2
			c1.6-1.6,3.4-3,5.9-3.3c0.9-0.1,1.9-0.5,2.8-0.8C489.9,1055.4,492.2,1055,494.1,1057.4z"/>
		<path d="M435.1,1097.4c3.9-6.5,10-8.9,17-9.9c1,2.2,0.4,4.1-1,5.3c-2.7,2.3-5.5,4.4-8.6,6c-1.5,0.7-3.5,0.5-5.3,0.3
			C436.4,1098.8,435.7,1097.9,435.1,1097.4z"/>
		<path d="M510.9,1057.5c-0.7,0.1-1.5,0.1-2.1,0.4c-1.9,1.1-3.7,2.4-5.5,3.4c-0.9,0.6-1.9,0.7-2.9,1s-2.2,0.4-3.1,0.8
			c-1,0.4-2.1,0.7-2.5-0.3c-0.3-0.7,0-2.1,0.6-2.6c2.4-2.7,5.1-5,8.5-6.4c0.4-0.1,0.9-0.3,1.2-0.4c2.4-1.1,4.1-0.9,5.5,1
			C511.1,1055,510.8,1056.4,510.9,1057.5C510.8,1057.6,510.9,1057.5,510.9,1057.5z"/>
		<path d="M456.7,1096.4c-0.3-0.3-1.3-0.6-1.4-1.1c-0.3-0.9-0.2-2.2,0.2-2.6c3.6-3,6.9-6.6,12-6.6c2.1,0,2.8,0.6,2,2.5
			c-1.7,3.8-5,6.1-8.8,7.2C459.5,1096,458.3,1096.1,456.7,1096.4z"/>
	</g>
	<path d="M342.1,1111.5L342.1,1111.5c-0.5,1.8-7.2,1-9.5,0.3l-27.9-8.1c-2.3-0.7-7.4-3.2-6.9-5l0,0c0.5-1.8,5-1.8,7.3-1.2l32.2,9.9
		C339.7,1108,342.6,1109.7,342.1,1111.5z"/>
	<path d="M339.2,1096.9L339.2,1096.9c-1.1,1.2-5.5-1.6-6.8-2.9l-16.5-15.2c-1.4-1.3-4-4.8-2.9-6l0,0c1.1-1.2,4.3,0.3,5.6,1.5
		l18.9,17.9C338.9,1093.5,340.3,1095.7,339.2,1096.9z"/>
	<g>
		<path d="M489.6,1102.6L489.6,1102.6c-0.1,1.3,4.5,2.3,6.2,2.3l20.1,0.9c1.7,0.1,5.6-0.4,5.7-1.7l0,0c0.1-1.3-2.9-2.3-4.5-2.4
			l-23.4-0.7C492,1100.9,489.7,1101.3,489.6,1102.6z"/>
		<path d="M496.7,1090.2L496.7,1090.2c0.4,1,4,0.2,5.1-0.4l14.3-6.3c1.2-0.5,3.7-2.3,3.3-3.3l0,0c-0.4-1-2.9-0.8-4-0.3l-16.4,7.5
			C497.7,1088.1,496.2,1089.2,496.7,1090.2z"/>
	</g>
</g>
</svg>
